# xmcd CD database file
#
# Track frame offsets:
#	150
#	27485
#	47962
#	65975
#	90650
#	115152
#	133777
#	150545
#	169910
#	198117
#	215277
#	233782
#	249405
#	288637
#
# Disc length: 4440 seconds
#
# Revision: 1
# Processed by: cddbd v1.5.2PL0 Copyright (c) Steve Scherf et al.
# Submitted via: CDex 1.70beta2
#
DISCID=cd11560e
DTITLE=島谷ひとみ - GATE -scena III-
DYEAR=2003
DGENRE=Pop
TTITLE0=overture-Perseus-ペルセウス-(TBS系プロ野球中継「THE BASEBALL 野球烈闘2003」テーマソング)
TTITLE1=太陽のワナ
TTITLE2=C'est la vie!
TTITLE3=トラキアの女
TTITLE4=赤い砂漠の伝説(GATE version)
TTITLE5=HARVEST MOON
TTITLE6=ミラージュ-BOY,I am a girl-
TTITLE7=bella flor
TTITLE8=Take me home
TTITLE9=元気を出して(NHK総合テレビ23時連続ドラマシリーズ主題歌)
TTITLE10=月影のエデンへ
TTITLE11=J.U.M.P
TTITLE12=いつの日にか…(GATE version/TBS系TV「王様のブランチ」エンディング・テーマ)
TTITLE13=Perseus-ペルセウス-(HEAVENS WiRE vs.TRI-HEDGE RMX/初回のみボーナス・トラック)
EXTD=YEAR: 2003
EXTT0=
EXTT1=
EXTT2=
EXTT3=
EXTT4=
EXTT5=
EXTT6=
EXTT7=
EXTT8=
EXTT9=
EXTT10=
EXTT11=
EXTT12=
EXTT13=
PLAYORDER=
